<?xml version="1.0" standalone="no"?>
<!DOCTYPE svg PUBLIC "-//W3C//DTD SVG 20010904//EN"
 "http://www.w3.org/TR/2001/REC-SVG-20010904/DTD/svg10.dtd">
<svg version="1.0" xmlns="http://www.w3.org/2000/svg"
 width="400.000000pt" height="400.000000pt" viewBox="0 0 400.000000 400.000000"
 preserveAspectRatio="xMidYMid meet">
<metadata>
Created by potrace 1.11, written by Peter Selinger 2001-2013
</metadata>
<g transform="translate(0.000000,400.000000) scale(0.100000,-0.100000)"
fill="#000000" stroke="none">
<path d="M1881 3842 c-11 -8 -12 -34 -7 -128 9 -187 24 -423 30 -494 3 -36 8
-108 11 -160 4 -52 10 -162 15 -245 6 -82 14 -238 19 -345 5 -107 13 -234 17
-282 7 -88 7 -88 35 -88 15 0 31 5 34 11 4 6 13 106 21 222 20 287 31 446 44
612 18 239 46 621 56 786 7 95 6 96 -17 103 -40 12 -243 18 -258 8z"/>
<path d="M1423 3625 c-67 -29 -193 -126 -193 -148 0 -4 14 -38 31 -75 30 -64
38 -83 89 -197 13 -27 40 -87 61 -132 22 -46 39 -85 39 -89 0 -6 15 -40 60
-139 16 -33 38 -82 51 -110 12 -27 37 -84 56 -125 59 -128 143 -326 143 -336
0 -17 97 -221 108 -228 5 -3 17 3 27 14 18 20 17 50 -3 120 -26 85 -76 261
-104 360 -5 19 -14 55 -19 80 -6 25 -14 54 -19 65 -4 11 -14 43 -20 70 -7 28
-20 75 -30 105 -10 30 -30 94 -44 143 -47 159 -77 261 -98 332 -11 39 -24 81
-28 95 -6 20 -40 141 -56 198 -4 15 -11 15 -51 -3z"/>
<path d="M2583 3618 c-5 -7 -19 -44 -31 -83 -12 -38 -57 -173 -98 -300 -42
-126 -82 -252 -89 -280 -7 -27 -20 -70 -29 -95 -10 -25 -71 -209 -137 -409
l-119 -365 25 -24 c15 -13 28 -22 30 -20 12 12 145 280 145 292 0 8 3 16 8 18
4 2 21 32 38 68 17 36 61 126 98 200 36 74 66 140 66 147 0 6 4 13 8 15 7 3
74 135 171 337 17 36 31 70 31 78 0 7 5 13 10 13 6 0 10 4 10 9 0 6 23 58 52
116 l52 106 -40 35 c-51 46 -110 94 -155 128 -28 20 -38 23 -46 14z"/>
<path d="M879 3083 c-42 -51 -109 -172 -109 -199 0 -8 21 -35 47 -57 25 -23
59 -54 75 -69 16 -15 47 -42 70 -60 22 -18 55 -46 72 -63 17 -16 49 -45 71
-64 37 -31 118 -104 264 -236 31 -27 67 -62 81 -77 14 -15 43 -41 65 -58 22
-18 60 -50 85 -73 146 -135 192 -171 208 -160 33 20 23 47 -49 133 -39 47 -85
101 -103 120 -17 19 -47 55 -66 80 -19 24 -41 51 -48 58 -7 8 -25 30 -40 50
-15 21 -31 42 -37 48 -5 6 -28 33 -50 59 -22 27 -49 58 -60 69 -11 12 -32 37
-46 56 -15 19 -45 55 -68 80 -24 25 -54 61 -69 80 -36 48 -113 140 -137 165
-11 12 -36 40 -55 64 -65 80 -75 85 -101 54z"/>
<path d="M3015 3003 c-38 -48 -90 -111 -115 -138 -65 -74 -196 -227 -212 -250
-12 -16 -91 -107 -113 -129 -11 -12 -32 -37 -46 -56 -15 -19 -37 -46 -49 -60
-12 -14 -34 -41 -49 -60 -14 -19 -33 -42 -41 -50 -9 -8 -38 -42 -65 -75 -28
-32 -62 -72 -76 -87 -15 -16 -39 -46 -54 -68 -27 -38 -27 -41 -11 -66 19 -28
16 -29 85 32 81 72 208 182 235 205 16 13 47 41 70 62 22 20 53 45 69 54 15
10 27 21 27 25 0 4 51 50 113 103 61 53 145 127 186 163 41 37 83 74 95 82 11
8 39 32 61 53 22 21 59 52 82 70 60 45 59 56 -16 172 -14 22 -32 46 -39 53 -6
8 -17 22 -22 33 -19 35 -44 20 -115 -68z"/>
<path d="M566 2493 c-3 -10 -13 -38 -21 -63 -21 -60 -45 -148 -45 -164 0 -15
25 -26 115 -51 33 -9 69 -21 80 -25 11 -4 94 -31 185 -60 91 -28 174 -55 185
-60 11 -4 38 -13 60 -19 22 -7 49 -16 60 -21 11 -4 67 -22 125 -40 115 -35
214 -67 245 -80 24 -10 174 -51 195 -53 10 -1 16 8 18 26 4 31 -19 56 -50 57
-10 0 -18 5 -18 10 0 6 -9 10 -20 10 -11 0 -20 5 -20 10 0 6 -6 10 -14 10 -12
0 -73 29 -141 68 -11 6 -155 77 -320 159 -165 81 -302 149 -305 152 -3 4 -45
26 -95 51 -49 25 -91 48 -93 53 -2 4 -11 7 -20 7 -9 0 -28 9 -42 20 -31 24
-56 25 -64 3z"/>
<path d="M3321 2455 c-244 -132 -564 -295 -576 -295 -2 0 -27 -13 -55 -30 -28
-16 -57 -30 -65 -30 -7 0 -15 -4 -17 -8 -1 -4 -90 -51 -195 -103 -191 -93
-193 -94 -193 -126 0 -26 4 -33 20 -33 11 0 28 4 38 9 9 5 44 17 77 26 59 16
101 30 140 45 11 4 52 17 90 29 39 12 79 26 90 30 11 5 40 14 65 21 25 7 61
18 82 26 20 7 125 43 235 79 109 36 207 70 218 75 17 8 131 45 203 65 17 5 22
14 22 42 0 35 -14 97 -30 138 -5 11 -14 35 -22 53 -7 17 -20 32 -28 32 -8 0
-53 -21 -99 -45z"/>
<path d="M406 1843 c-8 -50 -8 -162 0 -203 l7 -32 56 6 c31 3 108 11 171 17
63 5 160 14 215 20 55 5 147 13 205 18 58 5 116 12 130 15 14 3 63 8 110 11
47 3 123 10 170 15 47 6 121 13 165 16 120 8 125 10 125 44 0 36 -2 37 -175
45 -71 3 -195 10 -275 15 -277 20 -777 49 -846 50 l-51 0 -7 -37z"/>
<path d="M3388 1865 c-2 -3 -101 -10 -219 -16 -118 -6 -279 -15 -359 -19 -80
-5 -239 -13 -353 -19 -114 -5 -212 -13 -217 -16 -6 -3 -10 -19 -10 -34 0 -28
2 -28 68 -34 37 -4 114 -11 172 -17 58 -5 152 -14 210 -20 200 -18 351 -33
620 -61 52 -5 136 -12 187 -16 l91 -6 7 74 c5 60 4 124 -4 182 -1 8 -185 10
-193 2z"/>
<path d="M1972 1833 c-33 -6 -56 -46 -48 -85 9 -44 24 -58 64 -58 43 0 72 30
72 75 0 52 -33 78 -88 68z"/>
<path d="M2214 1664 c-8 -30 -5 -33 66 -70 30 -16 57 -32 58 -36 2 -5 8 -8 13
-8 12 0 128 -58 229 -115 93 -52 178 -98 400 -212 80 -41 208 -108 286 -149
138 -72 140 -73 157 -54 9 11 17 24 17 29 0 5 9 26 19 48 33 66 51 110 51 125
0 9 -35 26 -97 47 -54 17 -107 36 -118 41 -11 5 -54 21 -95 35 -41 15 -104 38
-140 50 -36 13 -123 45 -195 70 -71 26 -141 50 -155 53 -14 2 -29 8 -35 12 -5
4 -26 12 -45 18 -19 6 -73 24 -120 42 -139 52 -274 100 -282 100 -4 0 -11 -12
-14 -26z"/>
<path d="M1655 1650 c-27 -9 -70 -23 -95 -30 -25 -7 -54 -16 -65 -21 -32 -13
-137 -46 -175 -54 -38 -8 -115 -31 -250 -75 -47 -15 -119 -37 -160 -49 -41
-12 -84 -26 -95 -31 -26 -12 -192 -61 -228 -67 -15 -3 -30 -9 -33 -14 -3 -5
-14 -9 -24 -9 -35 0 -70 -22 -70 -44 0 -33 74 -226 86 -226 2 0 12 4 22 10 9
5 51 25 92 43 41 19 118 55 170 80 86 41 143 67 238 108 17 8 32 17 32 21 0 5
9 8 19 8 11 0 21 3 23 8 4 10 175 92 192 92 8 0 16 4 18 8 4 11 274 142 293
142 8 0 15 5 15 10 0 6 7 10 15 10 14 0 82 34 98 50 5 4 6 17 2 29 -8 26 -48
27 -120 1z"/>
<path d="M1725 1538 c-33 -28 -76 -65 -95 -82 -19 -17 -60 -51 -90 -76 -69
-57 -107 -90 -134 -115 -12 -11 -46 -38 -76 -60 -30 -22 -57 -42 -60 -45 -3
-3 -50 -44 -105 -90 -55 -46 -102 -87 -105 -90 -3 -3 -25 -21 -50 -40 -62 -48
-62 -48 -90 -71 -97 -79 -150 -133 -150 -152 0 -20 67 -100 131 -155 34 -30
59 -19 117 51 23 29 61 73 85 99 23 26 60 69 82 94 22 26 58 66 80 89 22 22
65 70 95 105 30 36 64 75 75 87 11 12 38 43 60 69 22 26 58 66 80 88 22 23 65
70 95 106 30 36 59 70 65 76 5 6 19 22 30 35 76 91 75 90 65 110 -16 29 -40
22 -105 -33z"/>
<path d="M2157 1572 c-15 -16 -14 -21 19 -62 20 -25 45 -56 57 -70 12 -14 38
-45 57 -70 19 -25 37 -47 40 -50 3 -3 23 -27 45 -55 22 -27 50 -60 62 -72 12
-13 34 -40 50 -60 15 -21 30 -40 33 -43 3 -3 30 -34 60 -70 30 -36 59 -70 65
-76 5 -6 28 -33 50 -59 22 -27 49 -58 60 -70 11 -11 36 -40 56 -65 20 -25 51
-61 68 -80 17 -19 50 -58 73 -87 24 -28 49 -54 56 -57 19 -8 118 71 155 124
21 30 21 35 3 52 -18 17 -162 147 -189 171 -137 116 -228 198 -277 248 -14 14
-47 45 -75 69 -27 23 -106 96 -175 160 -234 221 -255 240 -266 240 -6 0 -18
-8 -27 -18z"/>
<path d="M1846 1506 c-9 -14 -16 -28 -16 -31 0 -7 -153 -319 -160 -325 -10
-10 -50 -95 -50 -107 0 -7 -3 -13 -7 -13 -9 0 -33 -48 -33 -66 0 -7 -3 -14 -7
-16 -13 -5 -313 -612 -313 -631 0 -21 127 -83 189 -93 36 -6 40 -4 53 22 8 16
20 49 27 74 8 25 19 61 26 80 12 32 175 522 238 715 15 44 49 145 76 225 54
156 59 180 37 180 -8 0 -21 2 -29 6 -8 3 -21 -5 -31 -20z"/>
<path d="M2069 1520 c-13 -8 -15 -17 -9 -42 17 -67 57 -194 170 -538 111 -338
152 -467 180 -560 30 -102 51 -160 60 -165 12 -7 164 39 193 58 35 22 28 43
-78 262 -157 325 -226 469 -245 510 -9 22 -36 78 -58 125 -22 47 -51 110 -65
140 -14 30 -37 79 -51 109 -14 30 -26 61 -26 68 0 7 -4 13 -10 13 -5 0 -10 7
-10 15 0 17 -27 19 -51 5z"/>
<path d="M1946 1423 c-4 -43 -11 -136 -16 -208 -6 -71 -12 -152 -15 -180 -2
-27 -7 -104 -11 -170 -3 -66 -10 -169 -14 -230 -5 -60 -13 -187 -19 -281 -5
-94 -11 -175 -12 -180 -1 -5 -1 -14 0 -20 1 -15 104 -25 170 -17 l51 6 0 106
c0 58 -5 164 -10 236 -12 160 -29 440 -40 685 -4 102 -11 218 -15 258 -7 70
-8 72 -35 72 -27 0 -27 -1 -34 -77z"/>
</g>
</svg>
